<svg width="31" height="18" viewBox="0 0 31 18" fill="none" xmlns="http://www.w3.org/2000/svg">
<path d="M20.8718 17.0244L30.2401 12.222L20.8718 9.16714L20.8718 17.0244Z" fill="#13358F"/>
<path fill-rule="evenodd" clip-rule="evenodd" d="M0.260454 12.2228L8.42502 6.4329L-2.42676e-09 0.458332L0 0.436523L30.2389 0.436527L30.2389 12.2228L0.260454 12.2228Z" fill="#1753F1"/>
<path d="M10.8137 6.83915C10.8137 6.39388 10.9028 6.00623 11.0809 5.67621C11.259 5.34095 11.5052 5.08165 11.8195 4.8983C12.1391 4.71496 12.5031 4.62329 12.9117 4.62329C13.4408 4.62329 13.8756 4.75163 14.2161 5.00831C14.5618 5.26499 14.7897 5.62121 14.8997 6.07695H14.1297C14.0563 5.81503 13.9123 5.60811 13.6975 5.4562C13.488 5.30428 13.226 5.22833 12.9117 5.22833C12.5031 5.22833 12.1731 5.36976 11.9217 5.65264C11.6702 5.93028 11.5445 6.32578 11.5445 6.83915C11.5445 7.35775 11.6702 7.75849 11.9217 8.04137C12.1731 8.32424 12.5031 8.46568 12.9117 8.46568C13.226 8.46568 13.488 8.39234 13.6975 8.24567C13.907 8.09899 14.0511 7.88945 14.1297 7.61705H14.8997C14.7845 8.05708 14.554 8.41068 14.2082 8.67784C13.8625 8.93976 13.4303 9.07072 12.9117 9.07072C12.5031 9.07072 12.1391 8.97905 11.8195 8.7957C11.5052 8.61236 11.259 8.35305 11.0809 8.01779C10.9028 7.68253 10.8137 7.28965 10.8137 6.83915ZM17.7318 9.07072C17.3284 9.07072 16.9617 8.97905 16.6317 8.7957C16.3069 8.61236 16.0502 8.35305 15.8617 8.01779C15.6783 7.67729 15.5866 7.28441 15.5866 6.83915C15.5866 6.39912 15.6809 6.01147 15.8695 5.67621C16.0633 5.33571 16.3253 5.07641 16.6553 4.8983C16.9853 4.71496 17.3546 4.62329 17.7632 4.62329C18.1718 4.62329 18.5411 4.71496 18.8711 4.8983C19.2012 5.07641 19.4605 5.33309 19.649 5.66835C19.8429 6.00361 19.9398 6.39388 19.9398 6.83915C19.9398 7.28441 19.8403 7.67729 19.6412 8.01779C19.4474 8.35305 19.1828 8.61236 18.8476 8.7957C18.5123 8.97905 18.1404 9.07072 17.7318 9.07072ZM17.7318 8.44211C17.9885 8.44211 18.2294 8.38186 18.4547 8.26138C18.6799 8.1409 18.8607 7.96017 18.9969 7.7192C19.1383 7.47823 19.209 7.18488 19.209 6.83915C19.209 6.49341 19.1409 6.20006 19.0047 5.95909C18.8685 5.71812 18.6904 5.54001 18.4704 5.42477C18.2504 5.30428 18.012 5.24404 17.7554 5.24404C17.4934 5.24404 17.2525 5.30428 17.0324 5.42477C16.8177 5.54001 16.6448 5.71812 16.5138 5.95909C16.3829 6.20006 16.3174 6.49341 16.3174 6.83915C16.3174 7.19012 16.3803 7.48609 16.506 7.72706C16.6369 7.96803 16.8098 8.14875 17.0246 8.26924C17.2394 8.38448 17.4751 8.44211 17.7318 8.44211ZM21.595 5.39334C21.7207 5.14713 21.8988 4.95593 22.1293 4.81973C22.365 4.68353 22.6505 4.61543 22.9858 4.61543V5.35405H22.7972C21.9957 5.35405 21.595 5.78884 21.595 6.65842V9H20.8799V4.69401H21.595V5.39334ZM27.74 6.68199C27.74 6.81819 27.7322 6.96225 27.7165 7.11416H24.2748C24.301 7.53848 24.4451 7.87112 24.707 8.11209C24.9741 8.34781 25.2963 8.46568 25.6735 8.46568C25.9825 8.46568 26.2392 8.39496 26.4435 8.25352C26.6531 8.10685 26.7997 7.91302 26.8836 7.67206H27.6536C27.5384 8.08589 27.3079 8.42377 26.9621 8.68569C26.6164 8.94238 26.1868 9.07072 25.6735 9.07072C25.2649 9.07072 24.8982 8.97905 24.5734 8.7957C24.2539 8.61236 24.0024 8.35305 23.8191 8.01779C23.6357 7.67729 23.5441 7.28441 23.5441 6.83915C23.5441 6.39388 23.6331 6.00361 23.8112 5.66835C23.9893 5.33309 24.2381 5.07641 24.5577 4.8983C24.8825 4.71496 25.2544 4.62329 25.6735 4.62329C26.0821 4.62329 26.4435 4.71234 26.7578 4.89045C27.0721 5.06855 27.3131 5.31476 27.4807 5.62907C27.6536 5.93813 27.74 6.28911 27.74 6.68199ZM27.0014 6.5327C27.0014 6.2603 26.9412 6.02719 26.8207 5.83337C26.7002 5.6343 26.5352 5.48501 26.3257 5.38548C26.1214 5.28071 25.8935 5.22833 25.642 5.22833C25.2806 5.22833 24.9715 5.34357 24.7148 5.57406C24.4634 5.80455 24.3193 6.1241 24.2827 6.5327H27.0014Z" fill="white"/>
</svg>
