<svg width="31" height="18" viewBox="0 0 31 18" fill="none" xmlns="http://www.w3.org/2000/svg">
<path d="M20.8722 17.0244L30.2401 12.222L20.8722 9.16711L20.8722 17.0244Z" fill="#73112E"/>
<path fill-rule="evenodd" clip-rule="evenodd" d="M0.259724 12.2228L8.42361 6.43316L-2.53753e-09 0.459328L0 0.436523L30.2376 0.436527L30.2376 12.2228L0.259724 12.2228Z" fill="#FF3B76"/>
<path d="M10.7804 8.41854H12.6976V9H10.0653V3.52332H10.7804V8.41854ZM17.3857 6.68204C17.3857 6.81823 17.3778 6.96229 17.3621 7.1142L13.9205 7.1142C13.9467 7.5385 14.0908 7.87114 14.3527 8.1121C14.6198 8.34783 14.942 8.46569 15.3192 8.46569C15.6282 8.46569 15.8849 8.39497 16.0892 8.25354C16.2987 8.10686 16.4454 7.91304 16.5292 7.67208L17.2993 7.67208C17.184 8.08591 16.9535 8.42378 16.6078 8.6857C16.2621 8.94238 15.8325 9.07072 15.3192 9.07072C14.9106 9.07072 14.5439 8.97905 14.2191 8.7957C13.8996 8.61236 13.6481 8.35307 13.4648 8.01781C13.2815 7.67732 13.1898 7.28444 13.1898 6.83919C13.1898 6.39393 13.2788 6.00367 13.4569 5.66842C13.635 5.33316 13.8839 5.07648 14.2034 4.89838C14.5282 4.71504 14.9001 4.62337 15.3192 4.62337C15.7278 4.62337 16.0892 4.71242 16.4035 4.89052C16.7178 5.06863 16.9588 5.31483 17.1264 5.62913C17.2993 5.93819 17.3857 6.28916 17.3857 6.68204ZM16.6471 6.53274C16.6471 6.26035 16.5868 6.02724 16.4664 5.83342C16.3459 5.63437 16.1809 5.48507 15.9713 5.38555C15.767 5.28078 15.5392 5.2284 15.2877 5.2284C14.9263 5.2284 14.6172 5.34364 14.3606 5.57413C14.1091 5.80461 13.9651 6.12415 13.9284 6.53274H16.6471ZM18.0624 6.83133C18.0624 6.39131 18.1514 6.00629 18.3295 5.67627C18.5076 5.34102 18.7512 5.08172 19.0603 4.89838C19.3746 4.71504 19.7229 4.62337 20.1053 4.62337C20.4825 4.62337 20.8099 4.70456 21.0875 4.86695C21.3651 5.02934 21.572 5.23363 21.7082 5.47984V4.69409H22.4311V9H21.7082V8.19853C21.5668 8.44997 21.3547 8.65951 21.0718 8.82713C20.7942 8.98952 20.4694 9.07072 20.0975 9.07072C19.7151 9.07072 19.3693 8.97643 19.0603 8.78785C18.7512 8.59927 18.5076 8.33473 18.3295 7.99424C18.1514 7.65375 18.0624 7.26611 18.0624 6.83133ZM21.7082 6.83919C21.7082 6.51441 21.6428 6.23154 21.5118 5.99057C21.3808 5.74961 21.2027 5.56627 20.9775 5.44055C20.7575 5.30959 20.5139 5.24411 20.2467 5.24411C19.9796 5.24411 19.736 5.30697 19.516 5.43269C19.296 5.55841 19.1205 5.74175 18.9895 5.98272C18.8586 6.22368 18.7931 6.50655 18.7931 6.83133C18.7931 7.16134 18.8586 7.44945 18.9895 7.69565C19.1205 7.93662 19.296 8.12258 19.516 8.25354C19.736 8.37926 19.9796 8.44212 20.2467 8.44212C20.5139 8.44212 20.7575 8.37926 20.9775 8.25354C21.2027 8.12258 21.3808 7.93662 21.5118 7.69565C21.6428 7.44945 21.7082 7.16396 21.7082 6.83919ZM23.3723 6.83133C23.3723 6.39131 23.4614 6.00629 23.6395 5.67627C23.8176 5.34102 24.0612 5.08172 24.3702 4.89838C24.6845 4.71504 25.0355 4.62337 25.4231 4.62337C25.7584 4.62337 26.0701 4.70194 26.3582 4.85909C26.6463 5.01101 26.8663 5.21268 27.0182 5.46412V3.18544L27.7411 3.18544V9H27.0182V8.19068C26.8768 8.44736 26.6672 8.65951 26.3896 8.82713C26.112 8.98952 25.7872 9.07072 25.4153 9.07072C25.0329 9.07072 24.6845 8.97643 24.3702 8.78785C24.0612 8.59927 23.8176 8.33473 23.6395 7.99424C23.4614 7.65375 23.3723 7.26611 23.3723 6.83133ZM27.0182 6.83919C27.0182 6.51441 26.9527 6.23154 26.8218 5.99057C26.6908 5.74961 26.5127 5.56627 26.2875 5.44055C26.0674 5.30959 25.8239 5.24411 25.5567 5.24411C25.2895 5.24411 25.046 5.30697 24.826 5.43269C24.6059 5.55841 24.4305 5.74175 24.2995 5.98272C24.1685 6.22368 24.1031 6.50655 24.1031 6.83133C24.1031 7.16134 24.1685 7.44945 24.2995 7.69565C24.4305 7.93662 24.6059 8.12258 24.826 8.25354C25.046 8.37926 25.2895 8.44212 25.5567 8.44212C25.8239 8.44212 26.0674 8.37926 26.2875 8.25354C26.5127 8.12258 26.6908 7.93662 26.8218 7.69565C26.9527 7.44945 27.0182 7.16396 27.0182 6.83919Z" fill="white"/>
</svg>
