<svg width="31" height="18" viewBox="0 0 31 18" fill="none" xmlns="http://www.w3.org/2000/svg">
<path d="M20.8722 17.0244L30.2401 12.222L20.8722 9.16711L20.8722 17.0244Z" fill="#73112E"/>
<path fill-rule="evenodd" clip-rule="evenodd" d="M0.259724 12.2228L8.42361 6.43316L-2.53753e-09 0.459328L0 0.436523L30.2376 0.436527L30.2376 12.2228L0.259724 12.2228Z" fill="#FF3B76"/>
<path d="M13.9563 9.055C13.4482 9.055 12.9846 8.93714 12.5656 8.70141C12.1465 8.46045 11.8139 8.12782 11.5677 7.70351C11.3267 7.27397 11.2062 6.79204 11.2062 6.25773C11.2062 5.72342 11.3267 5.24411 11.5677 4.81981C11.8139 4.39026 12.1465 4.05763 12.5656 3.8219C12.9846 3.58094 13.4482 3.46046 13.9563 3.46046C14.4697 3.46046 14.9359 3.58094 15.355 3.8219C15.7741 4.05763 16.1041 4.38764 16.345 4.81195C16.586 5.23625 16.7065 5.71818 16.7065 6.25773C16.7065 6.79728 16.586 7.27921 16.345 7.70351C16.1041 8.12782 15.7741 8.46045 15.355 8.70141C14.9359 8.93714 14.4697 9.055 13.9563 9.055ZM13.9563 8.43426C14.3387 8.43426 14.6819 8.34521 14.9857 8.1671C15.2947 7.989 15.5357 7.73494 15.7086 7.40493C15.8867 7.07491 15.9757 6.69251 15.9757 6.25773C15.9757 5.81771 15.8867 5.43531 15.7086 5.11053C15.5357 4.78052 15.2974 4.52646 14.9935 4.34836C14.6897 4.17025 14.344 4.0812 13.9563 4.0812C13.5687 4.0812 13.223 4.17025 12.9192 4.34836C12.6153 4.52646 12.3744 4.78052 12.1963 5.11053C12.0234 5.43531 11.937 5.81771 11.937 6.25773C11.937 6.69251 12.0234 7.07491 12.1963 7.40493C12.3744 7.73494 12.6153 7.989 12.9192 8.1671C13.2282 8.34521 13.574 8.43426 13.9563 8.43426ZM18.3655 5.3934C18.4912 5.1472 18.6693 4.956 18.8998 4.81981C19.1355 4.68361 19.421 4.61551 19.7562 4.61551V5.35412H19.5677C18.7662 5.35412 18.3655 5.7889 18.3655 6.65846V9H17.6504V4.69409L18.3655 4.69409V5.3934ZM22.3574 4.62337C22.7294 4.62337 23.0541 4.70456 23.3318 4.86695C23.6146 5.02934 23.8242 5.23363 23.9604 5.47984V4.69409H24.6833V9.09429C24.6833 9.48717 24.5994 9.83552 24.4318 10.1393C24.2642 10.4484 24.0232 10.6894 23.7089 10.8622C23.3999 11.0351 23.0384 11.1215 22.6246 11.1215C22.0589 11.1215 21.5874 10.9879 21.2102 10.7208C20.8331 10.4536 20.6105 10.0896 20.5424 9.6286H21.2495C21.3281 9.89052 21.4905 10.1001 21.7367 10.2572C21.9829 10.4196 22.2789 10.5008 22.6246 10.5008C23.0175 10.5008 23.337 10.3777 23.5832 10.1315C23.8346 9.88528 23.9604 9.53955 23.9604 9.09429V8.19068C23.8189 8.44212 23.6094 8.65165 23.3318 8.81928C23.0541 8.9869 22.7294 9.07072 22.3574 9.07072C21.975 9.07072 21.6267 8.97643 21.3124 8.78785C21.0033 8.59927 20.7597 8.33473 20.5816 7.99424C20.4035 7.65375 20.3145 7.26611 20.3145 6.83133C20.3145 6.39131 20.4035 6.00629 20.5816 5.67627C20.7597 5.34102 21.0033 5.08172 21.3124 4.89838C21.6267 4.71504 21.975 4.62337 22.3574 4.62337ZM23.9604 6.83919C23.9604 6.51441 23.8949 6.23154 23.7639 5.99057C23.633 5.74961 23.4549 5.56627 23.2296 5.44055C23.0096 5.30959 22.766 5.24411 22.4989 5.24411C22.2317 5.24411 21.9881 5.30697 21.7681 5.43269C21.5481 5.55841 21.3726 5.74175 21.2417 5.98272C21.1107 6.22368 21.0452 6.50655 21.0452 6.83133C21.0452 7.16134 21.1107 7.44945 21.2417 7.69565C21.3726 7.93662 21.5481 8.12258 21.7681 8.25354C21.9881 8.37926 22.2317 8.44212 22.4989 8.44212C22.766 8.44212 23.0096 8.37926 23.2296 8.25354C23.4549 8.12258 23.633 7.93662 23.7639 7.69565C23.8949 7.44945 23.9604 7.16396 23.9604 6.83919ZM26.1195 9.04715C25.9833 9.04715 25.868 9 25.7737 8.90571C25.6794 8.81142 25.6323 8.69618 25.6323 8.55998C25.6323 8.42378 25.6794 8.30854 25.7737 8.21425C25.868 8.11996 25.9833 8.07281 26.1195 8.07281C26.2504 8.07281 26.3604 8.11996 26.4495 8.21425C26.5438 8.30854 26.5909 8.42378 26.5909 8.55998C26.5909 8.69618 26.5438 8.81142 26.4495 8.90571C26.3604 9 26.2504 9.04715 26.1195 9.04715Z" fill="white"/>
</svg>
